<svg width="55" height="55" viewBox="0 0 55 55" fill="none" xmlns="http://www.w3.org/2000/svg">
<path d="M25.7812 51.5636H3.43754V3.43843H25.7812C26.73 3.43843 27.4999 2.66836 27.4999 1.71972C27.4999 0.771069 26.7298 0.00100708 25.7812 0.00100708H1.7187C0.770057 0.00100708 0 0.770926 0 1.71972V53.2823C0 54.2311 0.770057 55.001 1.7187 55.001H25.781C26.7298 55.001 27.4997 54.2309 27.4997 53.2823C27.4999 52.3335 26.7298 51.5636 25.7812 51.5636Z" fill="#FFCF0B"/>
<path d="M54.5013 26.3013L42.642 14.2717C41.97 13.5928 40.882 13.5945 40.2117 14.2717C39.5396 14.9489 39.5396 16.0489 40.2117 16.7261L49.1492 25.7925H13.7552C12.8064 25.7925 12.0365 26.5694 12.0365 27.5285C12.0365 28.4876 12.8065 29.2645 13.7552 29.2645H49.1492L40.2117 38.3309C39.5396 39.0099 39.5396 40.1081 40.2117 40.7853C40.8837 41.4642 41.9717 41.4642 42.642 40.7853L54.4996 28.7557C55.1631 28.0871 55.1699 26.9682 54.5013 26.3013Z" fill="#FFCF0B"/>
</svg>
